name C:\Users\u0101727\Documents\MyRepositories\upper-imu-dc\Results\main_tracking\Case_16\kinematics.mot
datacolumns 10
datarows 37
range 6.25000000 6.61000000
endheader 
time	clav_prot	clav_elev	scapula_abduction	scapula_elevation	scapula_upward_rot	scapula_winging	plane_elv	shoulder_elv	axial_rot	
          6.25000000	        -53.23410166	          9.50478009	         -8.97134422	         -1.09166769	         90.88750969	        -17.28316168	         31.11169830	         68.26948942	        -12.38748381	
          6.26000000	        -53.13817855	          9.38722306	         -8.74535605	         -1.15394467	         90.94991158	        -17.15486549	         31.21637836	         68.50462904	        -12.48057200	
          6.27000000	        -53.04180784	          9.27237027	         -8.51925214	         -1.21437225	         91.01235534	        -17.02695790	         31.32707528	         68.73567259	        -12.57023835	
          6.28000000	        -52.94583289	          9.16248696	         -8.29508605	         -1.27151996	         91.07463276	        -16.90086892	         31.44534134	         68.96213068	        -12.65618761	
          6.29000000	        -52.85066118	          9.05910745	         -8.07398200	         -1.32440387	         91.13659728	        -16.77744177	         31.57179529	         69.18396313	        -12.73856096	
          6.30000000	        -52.75624797	          8.96280590	         -7.85606064	         -1.37264246	         91.19815156	        -16.65685213	         31.70618491	         69.40162350	        -12.81792514	
          6.31000000	        -52.66218653	          8.87314010	         -7.64060585	         -1.41651025	         91.25919768	        -16.53867498	         31.84763115	         69.61601073	        -12.89511788	
          6.32000000	        -52.56788153	          8.78878921	         -7.42642651	         -1.45686999	         91.31956952	        -16.42208203	         31.99497657	         69.82833324	        -12.97101619	
          6.33000000	        -52.47276848	          8.70785672	         -7.21233076	         -1.49499637	         91.37896993	        -16.30612608	         32.14715505	         70.03991090	        -13.04629361	
          6.34000000	        -52.37653317	          8.62827750	         -6.99760739	         -1.53232507	         91.43693593	        -16.19005005	         32.30349751	         70.25195099	        -13.12123324	
          6.35000000	        -52.27927808	          8.54824602	         -6.78239839	         -1.57017670	         91.49284549	        -16.07354862	         32.46389591	         70.46534754	        -13.19565896	
          6.36000000	        -52.18158612	          8.46656966	         -6.56785717	         -1.60951615	         91.54596754	        -15.95691263	         32.62877360	         70.68055874	        -13.26902889	
          6.37000000	        -52.08445310	          8.38284765	         -6.35602735	         -1.65081345	         91.59554471	        -15.84100616	         32.79886358	         70.89760506	        -13.34069856	
          6.38000000	        -51.98909837	          8.29740689	         -6.14945285	         -1.69405634	         91.64089058	        -15.72706937	         32.97486192	         71.11619653	        -13.41030016	
          6.39000000	        -51.89670990	          8.21100295	         -5.95062991	         -1.73891750	         91.68147575	        -15.61640191	         33.15707998	         71.33595030	        -13.47812374	
          6.40000000	        -51.80820750	          8.12438731	         -5.76147678	         -1.78501847	         91.71698283	        -15.51002969	         33.34522136	         71.55661816	        -13.54535965	
          6.41000000	        -51.72410259	          8.03791766	         -5.58299744	         -1.83217869	         91.74732276	        -15.40847197	         33.53835208	         71.77823234	        -13.61408998	
          6.42000000	        -51.64449013	          7.95138745	         -5.41524853	         -1.88053516	         91.77260152	        -15.31169209	         33.73505226	         72.00112708	        -13.68700771	
          6.43000000	        -51.56915676	          7.86414370	         -5.25759167	         -1.93048273	         91.79304905	        -15.21923732	         33.93366885	         72.22584131	        -13.76692582	
          6.44000000	        -51.49775254	          7.77542125	         -5.10911285	         -1.98247551	         91.80893159	        -15.13049944	         34.13257729	         72.45295415	        -13.85621236	
          6.45000000	        -51.42995796	          7.68472366	         -4.96903756	         -2.03679423	         91.82047510	        -15.04498427	         34.33037526	         72.68292172	        -13.95631851	
          6.46000000	        -51.36558479	          7.59207187	         -4.83698459	         -2.09339263	         91.82782015	        -14.96248184	         34.52596308	         72.91597749	        -14.06754246	
          6.47000000	        -51.30457796	          7.49801544	         -4.71297699	         -2.15189074	         91.83101258	        -14.88307656	         34.71850522	         73.15213125	        -14.18908083	
          6.48000000	        -51.24692773	          7.40341507	         -4.59723529	         -2.21171233	         91.83001981	        -14.80700842	         34.90731087	         73.39126092	        -14.31931169	
          6.49000000	        -51.19254212	          7.30910730	         -4.48986963	         -2.27229729	         91.82476037	        -14.73446075	         35.09169980	         73.63324676	        -14.45618178	
          6.50000000	        -51.14114746	          7.21561260	         -4.39062487	         -2.33328639	         91.81513963	        -14.66538039	         35.27091988	         73.87807429	        -14.59756174	
          6.51000000	        -51.09226848	          7.12302209	         -4.29879475	         -2.39459076	         91.80109038	        -14.59941509	         35.44414889	         74.12584880	        -14.74147586	
          6.52000000	        -51.04529509	          7.03110501	         -4.21332849	         -2.45631790	         91.78261480	        -14.53599016	         35.61056830	         74.37671565	        -14.88618460	
          6.53000000	        -50.99960054	          6.93956969	         -4.13305861	         -2.51859793	         91.75982379	        -14.47447732	         35.76946596	         74.63072822	        -15.03016554	
          6.54000000	        -50.95465884	          6.84834008	         -4.05693407	         -2.58139953	         91.73297018	        -14.41437161	         35.92032456	         74.88772296	        -15.17207714	
          6.55000000	        -50.91011971	          6.75771247	         -3.98416178	         -2.64442517	         91.70247341	        -14.35539951	         36.06287510	         75.14724732	        -15.31077165	
          6.56000000	        -50.86582549	          6.66831548	         -3.91421503	         -2.70713725	         91.66893300	        -14.29751916	         36.19711931	         75.40855792	        -15.44537042	
          6.57000000	        -50.82177486	          6.58087699	         -3.84672064	         -2.76891382	         91.63312769	        -14.24081622	         36.32333364	         75.67068184	        -15.57537221	
          6.58000000	        -50.77805222	          6.49593452	         -3.78129160	         -2.82924387	         91.59599447	        -14.18535471	         36.44204813	         75.93251022	        -15.70072707	
          6.59000000	        -50.73474597	          6.41361564	         -3.71737105	         -2.88787728	         91.55858899	        -14.13104376	         36.55399569	         76.19289097	        -15.82183901	
          6.60000000	        -50.69187605	          6.33358024	         -3.65413904	         -2.94486790	         91.52203059	        -14.07756810	         36.66003064	         76.45069820	        -15.93946217	
          6.61000000	        -50.64934021	          6.25510723	         -3.59049195	         -3.00052171	         91.48743411	        -14.02438565	         36.76103646	         76.70488078	        -16.05450199	
